<svg version="1.2" xmlns="http://www.w3.org/2000/svg" viewBox="0 0 340 200" width="340" height="200">
	<title>1-repos-per-language-svg</title>
	<style>
		.s0 { fill: #252334;stroke: #000000 } 
		.s1 { fill: #ff7372 } 
		.s2 { fill: #b07219;stroke: #252334 } 
		.s3 { fill: #dea584;stroke: #252334 } 
		.s4 { fill: #3178c6;stroke: #252334 } 
		.s5 { fill: #199f4b;stroke: #252334 } 
		.s6 { fill: #427819;stroke: #252334 } 
		.s7 { fill: #dbdbdb } 
		.s8 { fill: #b07219;stroke: #252334;stroke-width: 2 } 
		.s9 { fill: #dea584;stroke: #252334;stroke-width: 2 } 
		.s10 { fill: #3178c6;stroke: #252334;stroke-width: 2 } 
		.s11 { fill: #199f4b;stroke: #252334;stroke-width: 2 } 
		.s12 { fill: #427819;stroke: #252334;stroke-width: 2 } 
	</style>
	<path id="Layer" class="s0" d="m1 6c0-2.8 2.2-5 5-5h328c2.8 0 5 2.2 5 5v188c0 2.8-2.2 5-5 5h-328c-2.8 0-5-2.2-5-5z"/>
	<path id="Top Languages by Repo" class="s1" aria-label="Top Languages by Repo"  d="m42.9 26.5h-5.2v13.5h-2v-13.5h-5.2v-1.6h12.4zm9.4 7.6q0 3.1-1.3 4.5-1.4 1.5-3.9 1.5-2.6 0-3.9-1.5-1.3-1.6-1.3-4.5 0-6 5.2-6 2.7 0 4 1.5 1.2 1.4 1.2 4.5zm-2 0q0-2.4-0.7-3.5-0.7-1.1-2.4-1.1-1.7 0-2.5 1.1-0.7 1.1-0.7 3.5 0 2.3 0.7 3.5 0.7 1.1 2.3 1.1 1.8 0 2.5-1.1 0.8-1.1 0.8-3.5zm14.2 0q0 6-4.2 6-2.7 0-3.6-2h-0.1q0.1 0.1 0.1 1.8v4.6h-2v-13.8q0-1.8 0-2.4h1.8q0 0 0.1 0.3 0 0.3 0 0.8 0 0.6 0 0.8h0.1q0.5-1.1 1.3-1.6 0.9-0.5 2.3-0.5 2.1 0 3.2 1.4 1 1.5 1 4.6zm-2 0q0-2.4-0.6-3.5-0.7-1-2.1-1-1.2 0-1.8 0.5-0.7 0.5-1 1.5-0.3 1-0.3 2.7 0 2.2 0.7 3.3 0.7 1.1 2.4 1.1 1.4 0 2.1-1 0.6-1.1 0.6-3.6zm20.6 5.8h-9.7v-15.1h2v13.4h7.7zm5.2 0.3q-1.8 0-2.7-1-0.8-0.9-0.8-2.5 0-1.8 1.1-2.8 1.2-0.9 3.9-1h2.6v-0.7q0-1.4-0.6-2-0.6-0.6-1.9-0.6-1.3 0-1.9 0.4-0.6 0.5-0.7 1.4l-2-0.2q0.5-3.1 4.6-3.1 2.2 0 3.3 1 1.1 1 1.1 2.9v5q0 0.9 0.3 1.3 0.2 0.5 0.8 0.5 0.3 0 0.7-0.1v1.2q-0.8 0.2-1.5 0.2-1.1 0-1.6-0.6-0.5-0.6-0.6-1.8-0.8 1.4-1.7 1.9-1 0.6-2.4 0.6zm0.4-1.5q1.1 0 1.9-0.5 0.8-0.5 1.3-1.3 0.5-0.8 0.5-1.7v-1l-2.1 0.1q-1.4 0-2.1 0.2-0.7 0.3-1.1 0.8-0.4 0.6-0.4 1.4 0 1 0.5 1.5 0.6 0.5 1.5 0.5zm18.2 1.2h-2v-7.3q0-1.2-0.2-1.8-0.2-0.6-0.7-0.9-0.5-0.3-1.5-0.3-1.4 0-2.2 1-0.8 0.9-0.8 2.6v6.7h-1.9v-9.1q0-2-0.1-2.5h1.8q0.1 0.1 0.1 0.3 0 0.3 0 0.6 0 0.3 0 1.1h0.1q0.6-1.2 1.5-1.7 0.9-0.5 2.2-0.5 1.9 0 2.8 1 0.9 0.9 0.9 3.1zm7.3 4.6q-1.9 0-3.1-0.8-1.1-0.7-1.4-2.1l1.9-0.3q0.2 0.8 0.9 1.3 0.7 0.4 1.7 0.4 2.9 0 2.9-3.4v-1.9q-0.6 1.2-1.5 1.7-1 0.6-2.2 0.6-2.2 0-3.2-1.4-1-1.4-1-4.5 0-3.1 1.1-4.5 1.1-1.5 3.3-1.5 1.2 0 2.1 0.6 0.9 0.5 1.4 1.6 0-0.4 0.1-1.1 0-0.8 0.1-0.9h1.8q-0.1 0.6-0.1 2.4v8.9q0 4.9-4.8 4.9zm2.9-10.4q0-1.4-0.4-2.4-0.4-1.1-1.1-1.6-0.7-0.6-1.6-0.6-1.4 0-2.1 1.1-0.7 1.1-0.7 3.5 0 2.4 0.6 3.4 0.7 1.1 2.2 1.1 0.9 0 1.6-0.6 0.7-0.5 1.1-1.5 0.4-1 0.4-2.4zm4.9-5.8h1.9v7.3q0 1.2 0.2 1.8 0.2 0.7 0.7 0.9 0.5 0.3 1.5 0.3 1.4 0 2.2-0.9 0.8-1 0.8-2.7v-6.7h1.9v9.1q0 2.1 0.1 2.5h-1.8q0-0.1 0-0.3-0.1-0.2-0.1-0.5 0-0.3 0-1.2-0.7 1.2-1.6 1.7-0.9 0.5-2.2 0.5-1.9 0-2.8-0.9-0.8-1-0.8-3.2zm15.2 11.9q-1.7 0-2.6-1-0.9-0.9-0.9-2.5 0-1.8 1.2-2.8 1.2-0.9 3.8-1h2.6v-0.7q0-1.4-0.6-2-0.6-0.6-1.9-0.6-1.3 0-1.9 0.4-0.6 0.5-0.7 1.4l-2-0.2q0.5-3.1 4.7-3.1 2.2 0 3.3 1 1.1 1 1.1 2.9v5q0 0.9 0.2 1.3 0.2 0.5 0.9 0.5 0.2 0 0.6-0.1v1.2q-0.7 0.2-1.5 0.2-1.1 0-1.6-0.6-0.4-0.6-0.5-1.8h-0.1q-0.7 1.4-1.7 1.9-1 0.6-2.4 0.6zm0.4-1.5q1.1 0 1.9-0.5 0.9-0.5 1.3-1.3 0.5-0.8 0.5-1.7v-1l-2.1 0.1q-1.4 0-2.1 0.2-0.7 0.3-1 0.8-0.4 0.6-0.4 1.4 0 1 0.5 1.5 0.5 0.5 1.4 0.5zm13.3 5.8q-1.9 0-3-0.7-1.2-0.8-1.5-2.2l1.9-0.2q0.2 0.8 0.9 1.2 0.7 0.4 1.7 0.4 2.9 0 2.9-3.3v-1.9q-0.5 1.1-1.5 1.7-1 0.5-2.2 0.5-2.2 0-3.2-1.4-1-1.4-1-4.4 0-3.1 1.1-4.6 1.1-1.5 3.3-1.5 1.2 0 2.1 0.6 0.9 0.6 1.4 1.6 0-0.3 0.1-1.1 0-0.8 0.1-0.9h1.8q-0.1 0.6-0.1 2.4v8.9q0 4.9-4.8 4.9zm2.9-10.4q0-1.4-0.4-2.4-0.3-1-1.1-1.6-0.7-0.5-1.5-0.5-1.5 0-2.2 1.1-0.7 1-0.7 3.4 0 2.4 0.7 3.5 0.6 1 2.1 1 0.9 0 1.6-0.5 0.8-0.6 1.1-1.6 0.4-1 0.4-2.4zm14.7 0.4h-8.3q0 2 0.8 3.1 0.8 1.1 2.4 1.1 1.3 0 2-0.5 0.8-0.5 1.1-1.3l1.7 0.5q-1.1 2.8-4.8 2.8-2.5 0-3.9-1.6-1.3-1.5-1.3-4.5 0-2.9 1.3-4.5 1.4-1.5 3.9-1.5 5.1 0 5.1 6.2zm-8.3-1.5h6.3q-0.2-1.8-0.9-2.7-0.8-0.8-2.3-0.8-1.4 0-2.2 0.9-0.8 1-0.9 2.6zm19.5 3.7q0 1.6-1.3 2.5-1.2 0.9-3.4 0.9-2.2 0-3.4-0.7-1.2-0.7-1.5-2.2l1.7-0.4q0.2 1 1 1.4 0.8 0.4 2.2 0.4 1.4 0 2.1-0.4 0.7-0.5 0.7-1.4 0-0.7-0.5-1.1-0.5-0.4-1.5-0.7l-1.4-0.4q-1.7-0.4-2.4-0.8-0.7-0.4-1.1-1-0.4-0.6-0.4-1.5 0-1.5 1.2-2.4 1.1-0.8 3.3-0.8 1.9 0 3 0.7 1.2 0.6 1.5 2.1l-1.8 0.2q-0.1-0.7-0.8-1.1-0.7-0.5-1.9-0.5-1.3 0-2 0.4-0.6 0.4-0.6 1.2 0 0.5 0.3 0.9 0.2 0.3 0.7 0.5 0.5 0.2 2.2 0.6 1.5 0.4 2.2 0.8 0.7 0.3 1 0.7 0.4 0.4 0.7 0.9 0.2 0.5 0.2 1.2zm18.2-2.7q0 6.1-4.3 6.1-1.3 0-2.2-0.5-0.9-0.5-1.4-1.5 0 0.3-0.1 1 0 0.7 0 0.8h-1.9q0.1-0.6 0.1-2.4v-13.6h1.9v4.6q0 0.7 0 1.6 0.5-1.1 1.4-1.6 0.9-0.4 2.2-0.4 2.2 0 3.2 1.4 1.1 1.5 1.1 4.5zm-2 0.1q0-2.4-0.7-3.5-0.6-1.1-2.1-1.1-1.6 0-2.4 1.2-0.7 1.1-0.7 3.5 0 2.3 0.7 3.4 0.8 1.1 2.4 1.1 1.5 0 2.1-1.1 0.7-1.1 0.7-3.5zm5 10.4q-0.8 0-1.4-0.2v-1.4q0.4 0.1 0.9 0.1 1.8 0 2.9-2.7l0.2-0.5-4.6-11.5h2l2.5 6.4q0 0.1 0.1 0.4 0.1 0.2 0.5 1.4 0.4 1.1 0.4 1.3l0.8-2.1 2.5-7.4h2.1l-4.5 11.6q-0.7 1.8-1.3 2.8-0.7 0.9-1.4 1.3-0.8 0.5-1.7 0.5zm29.9-4.6h-2.4l-3.9-6.3h-4.7v6.3h-2.1v-15.1h7.2q2.5 0 3.9 1.1 1.4 1.1 1.4 3.2 0 1.7-1 2.8-1 1.2-2.7 1.5zm-2.7-10.8q0-1.3-0.9-2-0.9-0.7-2.5-0.7h-4.9v5.6h4.9q1.7 0 2.5-0.8 0.9-0.8 0.9-2.1zm15 5.4h-8.3q0 2 0.8 3 0.8 1.1 2.4 1.1 1.3 0 2-0.5 0.8-0.5 1.1-1.2l1.7 0.4q-1.1 2.8-4.8 2.8-2.6 0-3.9-1.6-1.3-1.5-1.3-4.5 0-2.9 1.3-4.4 1.3-1.6 3.9-1.6 5.1 0 5.1 6.2zm-8.3-1.5h6.3q-0.2-1.8-1-2.6-0.7-0.9-2.2-0.9-1.4 0-2.2 0.9-0.8 1-0.9 2.6zm20.6 1q0 6.1-4.3 6.1-2.7 0-3.6-2h-0.1q0.1 0.1 0.1 1.8v4.6h-2v-13.8q0-1.8 0-2.4h1.8q0 0 0.1 0.3 0 0.3 0 0.8 0 0.6 0 0.8h0.1q0.5-1.1 1.4-1.6 0.8-0.5 2.2-0.5 2.1 0 3.2 1.4 1.1 1.5 1.1 4.5zm-2.1 0.1q0-2.4-0.6-3.5-0.7-1-2.1-1-1.2 0-1.8 0.5-0.7 0.4-1 1.5-0.3 1-0.3 2.6 0 2.3 0.7 3.4 0.7 1.1 2.4 1.1 1.4 0 2.1-1.1 0.6-1 0.6-3.5zm14.3 0q0 3-1.3 4.5-1.4 1.5-3.9 1.5-2.6 0-3.9-1.5-1.3-1.6-1.3-4.5 0-6 5.2-6 2.7 0 3.9 1.4 1.3 1.5 1.3 4.6zm-2 0q0-2.4-0.8-3.5-0.7-1.1-2.3-1.1-1.7 0-2.5 1.1-0.8 1.1-0.8 3.5 0 2.3 0.8 3.4 0.7 1.2 2.3 1.2 1.8 0 2.5-1.1 0.8-1.1 0.8-3.5z"/>
	<g id="Layer">
		<g id="Layer">
			<path id="Layer" class="s2" d="m40 58h14v14h-14z"/>
			<path id="Layer" class="s3" d="m40 83.2h14v14h-14z"/>
			<path id="Layer" class="s4" d="m40 108.4h14v14h-14z"/>
			<path id="Layer" class="s5" d="m40 133.6h14v14h-14z"/>
			<path id="Layer" class="s6" d="m40 158.8h14v14h-14z"/>
			<path id="HTML" class="s7" aria-label="HTML"  d="m65.8 70h-1.3v-4.5h-5.2v4.5h-1.4v-9.6h1.4v4h5.2v-4h1.3zm9.3-8.6h-3.3v8.6h-1.3v-8.6h-3.3v-1.1h7.9zm10.9 8.6h-1.2v-6.4q0-1.1 0.1-2.1-0.4 1.2-0.6 1.9l-2.5 6.6h-0.9l-2.6-6.6-0.3-1.1-0.3-0.8v0.8l0.1 1.3v6.4h-1.2v-9.6h1.7l2.6 6.6q0.1 0.5 0.2 0.9 0.2 0.5 0.2 0.7 0.1-0.3 0.2-0.8 0.2-0.6 0.3-0.8l2.5-6.6h1.7zm8.4 0h-6.1v-9.7h1.3v8.6h4.8z"/>
			<path id="Javascript" class="s7" aria-label="Javascript"  d="m59.9 95.1q-2.4 0-2.9-2.5l1.3-0.2q0.1 0.8 0.6 1.2 0.4 0.5 1 0.5 0.7 0 1.2-0.5 0.4-0.5 0.4-1.4v-5.8h-1.9v-1h3.2v6.7q0 1.4-0.8 2.2-0.8 0.8-2.1 0.8zm6.7 0q-1.1 0-1.6-0.6-0.6-0.5-0.6-1.6 0-1.1 0.7-1.7 0.8-0.6 2.5-0.7h1.6v-0.4q0-0.9-0.3-1.3-0.4-0.4-1.2-0.4-0.9 0-1.2 0.3-0.4 0.3-0.5 0.9l-1.3-0.1q0.3-2 3-2 1.4 0 2.1 0.6 0.7 0.6 0.7 1.9v3.1q0 0.6 0.1 0.9 0.2 0.2 0.6 0.2 0.2 0 0.4 0v0.8q-0.5 0.1-1 0.1-0.6 0-1-0.4-0.3-0.3-0.3-1.1h-0.1q-0.4 0.8-1.1 1.2-0.6 0.3-1.5 0.3zm0.3-0.9q0.7 0 1.2-0.3 0.5-0.3 0.8-0.8 0.3-0.6 0.3-1.1v-0.7l-1.3 0.1q-0.9 0-1.3 0.2-0.5 0.1-0.7 0.5-0.2 0.3-0.2 0.9 0 0.6 0.3 0.9 0.3 0.3 0.9 0.3zm11.6-6.6l-2.7 7.4h-1.5l-2.7-7.4h1.3l1.7 4.8q0.1 0.3 0.4 1.6l0.3-0.8 0.3-0.8 1.6-4.8zm2.9 7.5q-1.1 0-1.7-0.6-0.5-0.5-0.5-1.6 0-1.1 0.7-1.7 0.8-0.6 2.5-0.7h1.6v-0.4q0-0.9-0.4-1.3-0.3-0.4-1.2-0.4-0.8 0-1.2 0.3-0.3 0.3-0.4 0.9l-1.3-0.1q0.3-2 3-2 1.4 0 2.1 0.6 0.7 0.6 0.7 1.9v3.1q0 0.6 0.1 0.9 0.2 0.2 0.6 0.2 0.1 0 0.4 0v0.8q-0.5 0.1-1 0.1-0.7 0-1-0.4-0.3-0.3-0.3-1.1h-0.1q-0.4 0.8-1.1 1.2-0.6 0.3-1.5 0.3zm0.3-0.9q0.7 0 1.2-0.3 0.5-0.3 0.8-0.8 0.3-0.6 0.3-1.1v-0.7l-1.3 0.1q-0.9 0-1.3 0.2-0.5 0.1-0.7 0.5-0.3 0.3-0.3 0.9 0 0.6 0.4 0.9 0.3 0.3 0.9 0.3zm11.2-1.2q0 1-0.8 1.6-0.8 0.5-2.2 0.5-1.4 0-2.2-0.4-0.7-0.5-0.9-1.4l1-0.2q0.2 0.5 0.7 0.8 0.5 0.3 1.4 0.3 0.9 0 1.3-0.3 0.5-0.3 0.5-0.8 0-0.5-0.3-0.8-0.3-0.2-1-0.4l-0.9-0.2q-1-0.3-1.5-0.6-0.4-0.2-0.7-0.6-0.2-0.4-0.2-0.9 0-1.1 0.7-1.6 0.7-0.5 2.1-0.5 1.2 0 1.9 0.4 0.7 0.4 0.9 1.4l-1.1 0.1q-0.1-0.5-0.5-0.7-0.5-0.3-1.2-0.3-0.9 0-1.3 0.3-0.4 0.2-0.4 0.7 0 0.4 0.2 0.6 0.2 0.2 0.5 0.3 0.3 0.1 1.3 0.4 1 0.2 1.5 0.5 0.4 0.2 0.6 0.4 0.3 0.3 0.4 0.6 0.2 0.3 0.2 0.8zm2.3-1.7q0 1.4 0.5 2.2 0.5 0.7 1.4 0.7 0.7 0 1.1-0.4 0.5-0.3 0.6-1.1l1.2 0.1q-0.1 1.1-0.9 1.7-0.8 0.6-2 0.6-1.5 0-2.3-0.9-0.8-1-0.8-2.9 0-1.9 0.8-2.8 0.8-1 2.3-1 1.2 0 1.9 0.6 0.8 0.5 1 1.6l-1.3 0.1q-0.1-0.6-0.5-1-0.4-0.4-1.1-0.4-1 0-1.4 0.7-0.5 0.6-0.5 2.2zm7.4 3.7h-1.3v-5.7q0-0.8 0-1.7h1.2q0 1.3 0 1.5 0.3-0.9 0.7-1.3 0.4-0.3 1.1-0.3 0.2 0 0.5 0v1.2q-0.2-0.1-0.7-0.1-0.7 0-1.1 0.7-0.4 0.6-0.4 1.8zm4.6-8.9h-1.2v-1.2h1.2zm0 9h-1.2v-7.4h1.2zm8.1-3.8q0 3.9-2.7 3.9-1.7 0-2.3-1.3 0 0.1 0 1.2v2.9h-1.2v-8.8q0-1.2-0.1-1.5h1.2q0 0 0.1 0.2 0 0.1 0 0.5 0 0.3 0 0.5 0.4-0.7 0.9-1 0.5-0.4 1.4-0.4 1.4 0 2.1 1 0.6 0.9 0.6 2.8zm-1.3 0.1q0-1.6-0.4-2.2-0.4-0.7-1.3-0.7-0.7 0-1.1 0.3-0.5 0.3-0.7 1-0.2 0.6-0.2 1.7 0 1.4 0.5 2.1 0.4 0.7 1.5 0.7 0.9 0 1.3-0.7 0.4-0.6 0.4-2.2zm5.7 2.7v0.9q-0.6 0.2-1.2 0.2-1.5 0-1.5-1.7v-4.9h-0.9v-0.9h0.9l0.4-1.7h0.8v1.7h1.4v0.9h-1.4v4.6q0 0.6 0.2 0.8 0.2 0.2 0.6 0.2 0.2 0 0.7-0.1z"/>
			<path id="Python" class="s7" aria-label="Python"  d="m65.4 113.3q0 1.3-0.9 2.1-0.9 0.8-2.4 0.8h-2.8v3.8h-1.4v-9.6h4.1q1.6 0 2.5 0.7 0.9 0.8 0.9 2.2zm-1.3 0q0-1.9-2.3-1.9h-2.5v3.8h2.6q2.2 0 2.2-1.9zm3.3 9.6q-0.5 0-0.8-0.1v-0.9q0.3 0 0.6 0 1.1 0 1.8-1.6l0.1-0.3-2.9-7.4h1.3l1.5 4.1q0.1 0.1 0.1 0.2 0.1 0.2 0.3 0.9 0.3 0.8 0.3 0.9l0.5-1.4 1.6-4.7h1.3l-2.8 7.4q-0.5 1.2-0.9 1.8-0.4 0.5-0.9 0.8-0.4 0.3-1.1 0.3zm9.5-3.9v0.9q-0.6 0.2-1.2 0.2-1.5 0-1.5-1.7v-4.9h-0.9v-0.9h1l0.3-1.7h0.8v1.7h1.4v0.9h-1.4v4.7q0 0.5 0.2 0.7 0.2 0.2 0.6 0.2 0.3 0 0.7-0.1zm2.3-5.1q0.4-0.8 0.9-1.1 0.6-0.3 1.5-0.3 1.2 0 1.7 0.6 0.6 0.6 0.6 2v4.9h-1.2v-4.7q0-0.8-0.2-1.1-0.1-0.4-0.4-0.6-0.4-0.2-1-0.2-0.8 0-1.4 0.6-0.5 0.6-0.5 1.6v4.4h-1.2v-10.1h1.2v2.6q0 0.4 0 0.9 0 0.4 0 0.5zm12.8 2.4q0 1.9-0.8 2.9-0.9 0.9-2.5 0.9-1.6 0-2.5-0.9-0.8-1-0.8-2.9 0-3.8 3.3-3.8 1.7 0 2.5 0.9 0.8 0.9 0.8 2.9zm-1.3 0q0-1.5-0.4-2.2-0.5-0.7-1.6-0.7-1 0-1.5 0.7-0.5 0.7-0.5 2.2 0 1.5 0.5 2.2 0.4 0.7 1.5 0.7 1.1 0 1.5-0.7 0.5-0.7 0.5-2.2zm8.8 3.7h-1.3v-4.7q0-0.7-0.1-1.1-0.1-0.4-0.5-0.6-0.3-0.2-0.9-0.2-0.9 0-1.4 0.6-0.5 0.6-0.5 1.7v4.3h-1.2v-5.8q0-1.3-0.1-1.6h1.2q0 0 0 0.2 0 0.1 0 0.3 0 0.2 0 0.8h0.1q0.4-0.8 0.9-1.1 0.6-0.3 1.4-0.3 1.2 0 1.8 0.6 0.6 0.6 0.6 2z"/>
			<path id="R &amp; C (together)" class="s7" aria-label="R &amp; C (together)"  d="m66.3 146h-1.5l-2.5-4h-3v4h-1.4v-9.6h4.6q1.6 0 2.5 0.7 0.9 0.7 0.9 2 0 1.1-0.7 1.8-0.6 0.8-1.7 1zm-1.7-6.9q0-0.9-0.5-1.3-0.6-0.4-1.7-0.4h-3.1v3.5h3.2q1 0 1.6-0.5 0.5-0.4 0.5-1.3zm14.4 6.9q-1.2 0-2-0.8-0.5 0.4-1.2 0.6-0.6 0.3-1.4 0.3-1.4 0-2.2-0.7-0.8-0.7-0.8-2 0-1.9 2.3-2.9-0.2-0.4-0.4-1-0.2-0.6-0.2-1.1 0-1 0.7-1.6 0.6-0.5 1.7-0.5 1.1 0 1.7 0.5 0.6 0.5 0.6 1.4 0 0.8-0.6 1.4-0.6 0.7-2.2 1.3 0.8 1.4 2.1 2.8 0.7-1.1 1.1-2.8l1 0.3q-0.4 1.7-1.4 3.2 0.6 0.7 1.4 0.7 0.5 0 0.8-0.1v0.9q-0.4 0.1-1 0.1zm-2.2-7.8q0-0.5-0.3-0.8-0.4-0.3-1-0.3-0.6 0-1 0.3-0.3 0.4-0.3 1 0 0.8 0.4 1.7 0.9-0.4 1.4-0.6 0.4-0.3 0.6-0.6 0.2-0.3 0.2-0.7zm-0.5 6.3q-1.4-1.6-2.2-3.2-1.6 0.7-1.6 2.1 0 0.8 0.5 1.3 0.6 0.5 1.5 0.5 0.5 0 1-0.2 0.4-0.2 0.8-0.5zm13.2-7.3q-1.6 0-2.5 1.1-0.9 1-0.9 2.8 0 1.8 1 2.8 0.9 1.1 2.5 1.1 2 0 3-2l1.1 0.5q-0.6 1.3-1.7 1.9-1.1 0.7-2.5 0.7-1.5 0-2.5-0.6-1.1-0.6-1.6-1.7-0.6-1.2-0.6-2.7 0-2.3 1.2-3.6 1.3-1.3 3.5-1.3 1.5 0 2.6 0.6 1 0.6 1.5 1.8l-1.3 0.4q-0.3-0.9-1-1.3-0.8-0.5-1.8-0.5zm9.5 5.1q0-2 0.6-3.5 0.6-1.6 1.9-3h1.2q-1.3 1.4-1.9 3-0.6 1.6-0.6 3.5 0 1.9 0.6 3.5 0.6 1.6 1.9 3h-1.2q-1.3-1.3-1.9-2.9-0.6-1.6-0.6-3.6zm7.5 2.7v0.9q-0.6 0.2-1.2 0.2-1.5 0-1.5-1.7v-5h-0.8v-0.8h0.9l0.3-1.7h0.9v1.7h1.3v0.8h-1.3v4.7q0 0.6 0.1 0.8 0.2 0.2 0.6 0.2 0.3 0 0.7-0.1zm7.3-2.8q0 2-0.8 2.9-0.9 1-2.5 1-1.6 0-2.4-1-0.9-1-0.9-2.9 0-3.8 3.3-3.8 1.7 0 2.5 1 0.8 0.9 0.8 2.8zm-1.2 0q0-1.5-0.5-2.2-0.5-0.7-1.5-0.7-1.1 0-1.6 0.7-0.5 0.7-0.5 2.2 0 1.5 0.5 2.2 0.5 0.8 1.5 0.8 1.1 0 1.6-0.7 0.5-0.7 0.5-2.3zm5.6 6.7q-1.2 0-2-0.5-0.7-0.5-0.9-1.4l1.3-0.1q0.1 0.5 0.5 0.7 0.4 0.3 1.1 0.3 1.9 0 1.9-2.1v-1.2h-0.1q-0.3 0.7-0.9 1-0.6 0.4-1.4 0.4-1.4 0-2-0.9-0.7-0.9-0.7-2.8 0-2 0.7-2.9 0.7-1 2.1-1 0.8 0 1.4 0.4 0.5 0.4 0.9 1 0-0.2 0-0.7 0-0.5 0-0.5h1.2q0 0.3 0 1.5v5.6q0 3.2-3.1 3.2zm1.9-6.6q0-1-0.3-1.6-0.2-0.7-0.7-1-0.4-0.3-1-0.3-0.9 0-1.4 0.6-0.4 0.7-0.4 2.3 0 1.5 0.4 2.1 0.4 0.7 1.4 0.7 0.6 0 1-0.3 0.5-0.4 0.7-1 0.3-0.7 0.3-1.5zm9.3 0.2h-5.3q0 1.3 0.5 2 0.6 0.7 1.6 0.7 0.8 0 1.2-0.4 0.5-0.3 0.7-0.8l1.1 0.3q-0.7 1.8-3 1.8-1.7 0-2.5-1-0.9-1-0.9-2.9 0-1.8 0.9-2.8 0.8-1 2.4-1 3.3 0 3.3 3.9zm-5.3-0.9h4q-0.1-1.2-0.6-1.7-0.5-0.5-1.4-0.5-0.9 0-1.4 0.6-0.5 0.6-0.6 1.6zm9.7 3.4v0.9q-0.6 0.2-1.3 0.2-1.4 0-1.4-1.7v-4.9h-0.9v-0.9h0.9l0.4-1.7h0.8v1.7h1.4v0.9h-1.4v4.7q0 0.5 0.2 0.7 0.1 0.2 0.6 0.2 0.2 0 0.7-0.1zm2.2-5.1h0.1q0.4-0.8 0.9-1.1 0.6-0.3 1.4-0.3 1.2 0 1.8 0.6 0.6 0.5 0.6 2v4.9h-1.3v-4.7q0-0.8-0.1-1.2-0.2-0.3-0.5-0.5-0.3-0.2-0.9-0.2-0.9 0-1.4 0.6-0.5 0.6-0.5 1.6v4.4h-1.2v-10.2h1.2v2.7q0 0.4 0 0.8-0.1 0.5-0.1 0.6zm12.8 2.6h-5.2q0 1.3 0.5 2 0.5 0.7 1.5 0.7 0.8 0 1.3-0.3 0.5-0.3 0.7-0.8l1 0.3q-0.6 1.7-3 1.7-1.6 0-2.5-1-0.8-0.9-0.8-2.9 0-1.8 0.8-2.8 0.9-0.9 2.5-0.9 3.2 0 3.2 3.9zm-5.2-1h4q-0.1-1.1-0.6-1.7-0.5-0.5-1.4-0.5-0.9 0-1.5 0.6-0.5 0.6-0.5 1.6zm8.1 4.4h-1.3v-5.7q0-0.7 0-1.7h1.2q0 1.3 0 1.5 0.3-0.9 0.7-1.3 0.4-0.3 1.1-0.3 0.2 0 0.5 0.1v1.1q-0.3-0.1-0.7-0.1-0.7 0-1.1 0.7-0.4 0.6-0.4 1.9zm6.2-3.7v0.1q0 1.9-0.6 3.5-0.6 1.6-1.9 3h-1.2q1.3-1.5 1.9-3.1 0.6-1.5 0.6-3.5 0-1.9-0.6-3.5-0.6-1.5-1.9-3h1.2q1.3 1.4 1.9 3 0.6 1.6 0.6 3.5z"/>
			<path id="CSS" class="s7" aria-label="CSS"  d="m62.2 162.3q-1.6 0-2.5 1-0.9 1-0.9 2.8 0 1.8 1 2.9 0.9 1.1 2.5 1.1 2 0 3-2l1.1 0.5q-0.6 1.2-1.7 1.9-1.1 0.6-2.5 0.6-1.4 0-2.5-0.6-1.1-0.6-1.6-1.7-0.6-1.1-0.6-2.7 0-2.3 1.3-3.6 1.2-1.3 3.4-1.3 1.5 0 2.6 0.6 1 0.6 1.5 1.8l-1.2 0.4q-0.4-0.8-1.1-1.3-0.8-0.4-1.8-0.4zm13.4 6q0 1.4-1 2.1-1.1 0.7-3 0.7-3.5 0-4.1-2.4l1.3-0.3q0.2 0.9 0.9 1.3 0.8 0.4 2 0.4 1.2 0 1.9-0.4 0.7-0.5 0.7-1.3 0-0.5-0.2-0.8-0.2-0.3-0.6-0.4-0.4-0.2-0.9-0.4-0.6-0.1-1.2-0.2-1.2-0.3-1.8-0.5-0.6-0.3-0.9-0.6-0.3-0.3-0.5-0.7-0.2-0.5-0.2-1 0-1.2 0.9-1.9 1-0.7 2.8-0.7 1.6 0 2.5 0.5 0.8 0.5 1.2 1.7l-1.3 0.3q-0.2-0.8-0.8-1.1-0.6-0.4-1.7-0.4-1.1 0-1.7 0.4-0.6 0.4-0.6 1.1 0 0.5 0.2 0.8 0.2 0.3 0.7 0.5 0.4 0.2 1.8 0.5 0.4 0.1 0.8 0.2 0.5 0.1 0.9 0.2 0.4 0.2 0.7 0.4 0.4 0.2 0.7 0.4 0.2 0.3 0.4 0.7 0.1 0.4 0.1 0.9zm9.3 0q0 1.4-1 2.1-1 0.7-2.9 0.7-3.6 0-4.1-2.4l1.2-0.3q0.3 0.9 1 1.3 0.7 0.4 1.9 0.4 1.3 0 2-0.4 0.7-0.5 0.7-1.3 0-0.5-0.3-0.8-0.2-0.3-0.6-0.4-0.4-0.2-0.9-0.4-0.5-0.1-1.2-0.2-1.1-0.3-1.7-0.5-0.6-0.3-1-0.6-0.3-0.3-0.5-0.7-0.2-0.5-0.2-1 0-1.2 1-1.9 0.9-0.7 2.7-0.7 1.6 0 2.5 0.5 0.9 0.5 1.2 1.7l-1.3 0.3q-0.2-0.8-0.8-1.1-0.6-0.4-1.6-0.4-1.2 0-1.8 0.4-0.6 0.4-0.6 1.1 0 0.5 0.2 0.8 0.3 0.3 0.7 0.5 0.5 0.2 1.8 0.5 0.4 0.1 0.9 0.2 0.4 0.1 0.8 0.2 0.4 0.2 0.8 0.4 0.3 0.2 0.6 0.4 0.2 0.3 0.4 0.7 0.1 0.4 0.1 0.9z"/>
		</g>
		<g id="Layer">
			<g id="Layer">
				<path id="Layer" class="s8" d="m230 60c16.8 0 32.8 7 44.1 19.4 11.4 12.3 17.1 28.8 15.7 45.6-1.4 16.7-9.7 32-22.9 42.3-13.3 10.4-30.2 14.6-46.8 11.9l4.1-24.7c9.7 1.6 19.6-0.9 27.3-6.9 7.7-6 12.6-15 13.4-24.7 0.8-9.8-2.5-19.4-9.1-26.6-6.7-7.2-16-11.3-25.8-11.3z"/>
			</g>
			<g id="Layer">
				<path id="Layer" class="s9" d="m220.1 179.2c-8.2-1.4-16-4.4-22.9-9-7-4.5-12.9-10.4-17.4-17.4-4.6-6.9-7.6-14.7-9-22.9-1.3-8.2-1-16.6 1-24.6l24.3 6.1c-1.2 4.7-1.4 9.6-0.6 14.4 0.8 4.7 2.6 9.3 5.2 13.3 2.6 4.1 6.1 7.6 10.2 10.2 4 2.6 8.6 4.4 13.3 5.2z"/>
			</g>
			<g id="Layer">
				<path id="Layer" class="s10" d="m171.8 105.3q1.3-4.8 3.3-9.4 2-4.6 4.7-8.7 2.7-4.2 6.1-7.8 3.3-3.7 7.2-6.7l15.4 19.7q-2.3 1.8-4.3 3.9-1.9 2.1-3.5 4.6-1.6 2.4-2.8 5-1.1 2.7-1.8 5.5z"/>
			</g>
			<g id="Layer">
				<path id="Layer" class="s11" d="m193.1 72.7q2-1.6 4.1-2.9 2.1-1.4 4.2-2.6 2.2-1.1 4.5-2.1 2.3-1 4.6-1.8l8.1 23.6q-1.3 0.5-2.7 1-1.3 0.6-2.6 1.3-1.2 0.7-2.4 1.5-1.3 0.8-2.4 1.7z"/>
			</g>
			<g id="Layer">
				<path id="Layer" class="s12" d="m210.5 63.3q2.4-0.9 4.8-1.5 2.4-0.6 4.8-1 2.5-0.4 4.9-0.6 2.5-0.2 5-0.2v25q-1.4 0-2.9 0.1-1.4 0.1-2.9 0.4-1.4 0.2-2.8 0.6-1.4 0.3-2.8 0.8z"/>
			</g>
		</g>
	</g>
</svg>